<svg width="23" height="23" viewBox="0 0 23 23" fill="none" xmlns="http://www.w3.org/2000/svg">
<path d="M20.5 9.25021V11.5002M11.5 1.37521H11.9421C10.4969 2.71813 9.56791 4.52504 9.3167 6.48183C9.06549 8.43863 9.50791 10.4216 10.5671 12.086C11.6262 13.7505 13.2352 14.9911 15.1142 15.5924C16.9932 16.1936 19.0235 16.1174 20.8521 15.377C20.1487 17.0695 18.999 18.5394 17.5257 19.6298C16.0524 20.7201 14.3107 21.3901 12.4865 21.5683C10.6623 21.7464 8.82392 21.426 7.1675 20.6413C5.51108 19.8565 4.09875 18.6369 3.08116 17.1124C2.06357 15.5879 1.47889 13.8158 1.38949 11.9851C1.3001 10.1543 1.70933 8.33367 2.57354 6.71729C3.43775 5.10091 4.72453 3.74944 6.29661 2.80704C7.86868 1.86463 9.66709 1.36665 11.5 1.36621V1.37521ZM17.125 2.50021C17.125 3.09695 17.3621 3.66924 17.784 4.0912C18.206 4.51316 18.7783 4.75021 19.375 4.75021C18.7783 4.75021 18.206 4.98726 17.784 5.40922C17.3621 5.83118 17.125 6.40347 17.125 7.00021C17.125 6.40347 16.8879 5.83118 16.466 5.40922C16.044 4.98726 15.4717 4.75021 14.875 4.75021C15.4717 4.75021 16.044 4.51316 16.466 4.0912C16.8879 3.66924 17.125 3.09695 17.125 2.50021ZM19.375 10.3752H21.625H19.375Z" stroke="#858585" stroke-width="2" stroke-linecap="round" stroke-linejoin="round"/>
</svg>
